<svg id="Restaurant_Free_Font:_Bitter_Montserrat" data-name="Restaurant | Free Font: Bitter + Montserrat" xmlns="http://www.w3.org/2000/svg" viewBox="0 0 226.08 42.5"><defs><style>.cls-1,.cls-2{fill:#fff;}.cls-2{font-size:25.3px;font-family:OleoScript-Regular, Oleo Script;}</style></defs><title>only font logo</title><rect class="cls-1" x="45.08" y="41.66" width="181" height="0.84"/><rect class="cls-1" x="45.08" y="27.55" width="181" height="0.84"/><path class="cls-1" d="M326.92,188.1a5.28,5.28,0,0,1-2.68.67,3.79,3.79,0,0,1-4.08-4c0-2.43,1.55-4,4.22-4a5,5,0,0,1,2.29.53l.05,1.8h-.92l-.41-1.84.81.17V182a2.48,2.48,0,0,0-1.59-.62c-1.27,0-2.36,1-2.36,3.34s1,3.36,2.35,3.36a2.58,2.58,0,0,0,1.33-.4l-.89.74v-.88c0-.93,0-1.81,0-2.75H327c0,.92,0,1.84,0,2.79Zm-3-2.66v-.62h3.6v.62l-1.39.18h-.77Z" transform="translate(-271.59 -149.28)"/><path class="cls-1" d="M328.58,181.59V181h1.9v.8h-.19Zm2.09,6.17,1.71.17v.62h-3.8v-.62l1.71-.17Zm-1.18-3.21c0-1.19,0-2.39,0-3.58h2c0,1.18,0,2.36,0,3.61v.36c0,1.23,0,2.43,0,3.61h-2c0-1.16,0-2.36,0-3.57Zm1-.13h1.39c1.17,0,1.53-.66,1.53-1.41,0-.92-.52-1.37-1.48-1.37h-1.46V181h1.94c1.86,0,2.88.72,2.88,1.92,0,.88-.67,1.78-2.76,1.89v-.11c1.86.05,2.33.65,2.54,1.89l.31,1.78-1-.59,1.77.18v.62a4.49,4.49,0,0,1-1.29.17c-1,0-1.59-.29-1.71-1.18L333,186.2c-.12-.78-.41-1.13-1.11-1.13H330.5Z" transform="translate(-271.59 -149.28)"/><path class="cls-1" d="M337.23,181.59V181h1.9v.8h-.19Zm1.9,6.17v.79h-1.9v-.62l1.71-.17Zm-1-3.21c0-1.19,0-2.39,0-3.58h2c0,1.17,0,2.37,0,3.58v.38c0,1.24,0,2.44,0,3.62h-2c0-1.16,0-2.36,0-3.57ZM342,181l.85.66h-3.72V181h4.12l.08,2h-1Zm-.28,4h-2.59v-.68h2.59Zm1.85,1.59-.08,2h-4.36v-.64h4l-.85.64.35-2Zm-2.21-2.07.18-1.11h.68v2.49h-.68l-.18-1.17Z" transform="translate(-271.59 -149.28)"/><path class="cls-1" d="M344.83,181.59V181h1.9v.8h-.19Zm1.9,6.17v.79h-1.9v-.62l1.71-.17Zm-1-3.21c0-1.19,0-2.39,0-3.58h2.05c0,1.17,0,2.37,0,3.58v.38c0,1.24,0,2.44,0,3.62h-2.05c0-1.16,0-2.36,0-3.57Zm3.87-3.58.85.66h-3.73V181h4.13l.08,2h-1Zm-.28,4h-2.6v-.68h2.6Zm1.85,1.59-.09,2h-4.36v-.64h4l-.86.64.35-2ZM349,184.5l.18-1.11h.68v2.49h-.68l-.18-1.17Z" transform="translate(-271.59 -149.28)"/><path class="cls-1" d="M352.39,187.93l1.25-.17H354l1.52.17v.62h-3.11Zm.61-6.55.68.33-1.28-.11V181h2.67l4.23,5.68v1.93h-1Zm.39-.41.76.63v7h-.76Zm3.8,0h3.11v.62l-1.2.18h-.32l-1.59-.18Zm1.35,0h.76v7.61l-.76-.75Z" transform="translate(-271.59 -149.28)"/><path class="cls-1" d="M364.73,181.59V181h1.89v.8h-.18Zm2.25,6.17,1.71.17v.62h-4v-.62l1.71-.17Zm-1.35-3.21c0-1.19,0-2.39,0-3.58h2c0,1.17,0,2.37,0,3.58v.38c0,1.24,0,2.44,0,3.62h-2c0-1.16,0-2.36,0-3.57Zm3.95-3.58.85.66h-3.81V181h4.21l.08,2h-1Zm-.32,4h-2.64v-.68h2.64Zm-.36-.48.17-1.11h.69V186h-.69l-.17-1.16Z" transform="translate(-271.59 -149.28)"/><path class="cls-1" d="M379.54,184.76a3.75,3.75,0,1,1-3.75-4A3.69,3.69,0,0,1,379.54,184.76Zm-3.75,3.34c1.19,0,1.66-1.42,1.66-3.34s-.47-3.34-1.66-3.34-1.65,1.44-1.65,3.34S374.61,188.1,375.79,188.1Z" transform="translate(-271.59 -149.28)"/><path class="cls-1" d="M388.6,184.76a3.75,3.75,0,1,1-3.74-4A3.69,3.69,0,0,1,388.6,184.76Zm-3.74,3.34c1.19,0,1.65-1.42,1.65-3.34s-.46-3.34-1.65-3.34-1.65,1.44-1.65,3.34S383.67,188.1,384.86,188.1Z" transform="translate(-271.59 -149.28)"/><path class="cls-1" d="M389.81,181.59V181h1.9v.8h-.19Zm1.9,6.17v.79h-1.9v-.62l1.71-.17Zm-1-3.21c0-1.19,0-2.39,0-3.58h2.05c0,1.17,0,2.37,0,3.58v.38c0,1.24,0,2.44,0,3.62h-2.05c0-1.16,0-2.36,0-3.61Zm1,3.34h1.4c1.35,0,2.18-1.13,2.18-3.13s-.83-3.12-2.16-3.12h-1.42V181h1.6c2.52,0,4,1.44,4,3.77s-1.66,3.81-4.24,3.81h-1.39Z" transform="translate(-271.59 -149.28)"/><path class="cls-1" d="M403.32,186.21a1.52,1.52,0,0,0,1.61,1.55,1.86,1.86,0,0,0,1.43-.57l.33.32a2.83,2.83,0,0,1-2.56,1.22c-1.59,0-2.42-.94-2.42-2s.63-1.76,2.24-2.33l.19.27A1.87,1.87,0,0,0,403.32,186.21Zm.13-1.73a2.85,2.85,0,0,1-.71-1.82c0-1.13.88-1.83,2.22-1.83s2.05.59,2.05,1.49-.59,1.36-1.92,1.9l-.3-.25a2.66,2.66,0,0,0,.93-1.81.76.76,0,0,0-.78-.85.8.8,0,0,0-.79.87,1.92,1.92,0,0,0,.42,1.15,19.26,19.26,0,0,0,1.57,1.76c1.08,1.16,1.59,1.65,2.61,2.72l-.86-.42,1.73.36-.09.81a4.53,4.53,0,0,1-1.16.17,2.41,2.41,0,0,1-1.73-.61,17.38,17.38,0,0,1-1.69-1.84C404.14,185.3,403.76,184.83,403.45,184.48ZM408,184h.92a8.26,8.26,0,0,1-1.63,3.07l-.4-.29A6.32,6.32,0,0,0,408,184Zm.21.36-1.17-.19v-.52h2.6v.52l-1.18.19Z" transform="translate(-271.59 -149.28)"/><path class="cls-1" d="M414,181.59V181h1.9v.8h-.19Zm2.08,6.17,1.72.17v.62H414v-.62l1.71-.17Zm-1.17-3.21c0-1.19,0-2.39,0-3.58h2c0,1.18,0,2.36,0,3.61v.36c0,1.23,0,2.43,0,3.61h-2c0-1.16,0-2.36,0-3.57Zm1-.13h1.38c1.18,0,1.53-.66,1.53-1.41,0-.92-.51-1.37-1.47-1.37h-1.46V181h1.94c1.85,0,2.88.72,2.88,1.92,0,.88-.67,1.78-2.76,1.89v-.11c1.86.05,2.33.65,2.54,1.89l.31,1.78-1-.59,1.77.18v.62a4.49,4.49,0,0,1-1.29.17c-1,0-1.6-.29-1.71-1.18l-.22-1.34c-.12-.78-.41-1.13-1.12-1.13H416Z" transform="translate(-271.59 -149.28)"/><path class="cls-1" d="M422.67,181.59V181h1.9v.8h-.18Zm1.9,6.17v.79h-1.9v-.62l1.72-.17Zm-1-3.21c0-1.19,0-2.39,0-3.58h2.05c0,1.17,0,2.37,0,3.58v.38c0,1.24,0,2.44,0,3.62h-2.05c0-1.16,0-2.36,0-3.57Zm3.87-3.58.85.66h-3.73V181h4.13l.08,2h-1Zm-.28,4h-2.6v-.68h2.6Zm1.85,1.59-.09,2h-4.36v-.64h4l-.86.64.35-2Zm-2.21-2.07.18-1.11h.68v2.49H427l-.18-1.17Z" transform="translate(-271.59 -149.28)"/><path class="cls-1" d="M434.14,187c0-.6-.31-.88-1-1.19l-.5-.22c-1.39-.62-2.19-1.31-2.19-2.58s1.15-2.23,2.94-2.23a4.19,4.19,0,0,1,2.22.59L435.5,183h-1.08l-.29-1.74.95.33v.58a2.76,2.76,0,0,0-1.68-.68,1.1,1.1,0,0,0-1.22,1c0,.61.37.93,1.07,1.24l.56.25c1.5.66,2.12,1.3,2.12,2.46,0,1.36-1.06,2.33-3.08,2.33a5.23,5.23,0,0,1-2.56-.6l.07-1.72h1.1l.31,1.87-.92-.28v-.56a3.83,3.83,0,0,0,2,.6C433.69,188.08,434.14,187.61,434.14,187Z" transform="translate(-271.59 -149.28)"/><path class="cls-1" d="M437.34,181.63l.85-.66-.31,2.15h-1l0-2.15h6.93l0,2.15h-1l-.31-2.15.84.66Zm3.31,6.13,1.77.17v.62h-4v-.62l1.75-.17Zm-1.24-3.21c0-1.19,0-2.39,0-3.58h2.06c0,1.17,0,2.37,0,3.58V185c0,1.2,0,2.4,0,3.58h-2.06c0-1.16,0-2.36,0-3.57Z" transform="translate(-271.59 -149.28)"/><path class="cls-1" d="M443.92,187.93l1.22-.17h.21l1.11.17v.62h-2.54Zm3.36-7h1.21l2.66,7.59h-2l-2-6.19.44-.58-2.25,6.77h-.7ZM446,185.68h3.18l.27.67h-3.65Zm2,2.28,1.33-.17h.79l1.52.17v.59H448Z" transform="translate(-271.59 -149.28)"/><path class="cls-1" d="M452.05,181.59V181h3.85v.62l-1.75.18h-.34Zm4.54,6.13c1.06,0,1.69-.69,1.69-2.43V181h.77v4.32c0,2.45-1.16,3.48-3.11,3.48-1.75,0-3-.84-3-3.08v-1.26c0-1.13,0-2.3,0-3.46h2.05c0,1.14,0,2.3,0,3.46v.89C454.91,187.09,455.47,187.72,456.59,187.72Zm1.88-6-1.26-.11V181H460v.62l-1.21.11Z" transform="translate(-271.59 -149.28)"/><path class="cls-1" d="M461.12,181.59V181H463v.8h-.18Zm2.08,6.17,1.71.17v.62h-3.79v-.62l1.71-.17ZM462,184.55c0-1.19,0-2.39,0-3.58h2c0,1.18,0,2.36,0,3.61v.36c0,1.23,0,2.43,0,3.61h-2c0-1.16,0-2.36,0-3.57Zm1-.13h1.39c1.17,0,1.53-.66,1.53-1.41,0-.92-.51-1.37-1.48-1.37H463V181H465c1.86,0,2.89.72,2.89,1.92,0,.88-.67,1.78-2.76,1.89v-.11c1.86.05,2.33.65,2.53,1.89l.32,1.78-1-.59,1.77.18v.62a4.56,4.56,0,0,1-1.3.17c-1,0-1.59-.29-1.71-1.18l-.22-1.34c-.11-.78-.4-1.13-1.11-1.13H463Z" transform="translate(-271.59 -149.28)"/><path class="cls-1" d="M469.59,187.93l1.22-.17H471l1.12.17v.62h-2.55Zm3.36-7h1.22l2.65,7.59h-2l-2-6.19.44-.58L471,188.55h-.7Zm-1.27,4.72h3.18l.27.67h-3.65Zm2,2.28,1.33-.17h.79l1.52.17v.59h-3.64Z" transform="translate(-271.59 -149.28)"/><path class="cls-1" d="M478.34,187.93l1.26-.17h.33l1.52.17v.62h-3.11Zm.62-6.55.68.33-1.28-.11V181H481l4.23,5.68v1.93h-1Zm.38-.41.76.63v7h-.76Zm3.8,0h3.11v.62l-1.19.18h-.33l-1.59-.18Zm1.35,0h.76v7.61l-.76-.75Z" transform="translate(-271.59 -149.28)"/><path class="cls-1" d="M487.86,181.63l.85-.66-.31,2.15h-1l0-2.15h6.92l0,2.15h-1l-.31-2.15.85.66Zm3.3,6.13,1.78.17v.62h-4v-.62l1.75-.17Zm-1.23-3.21c0-1.19,0-2.39,0-3.58h2.05c0,1.17,0,2.37,0,3.58V185c0,1.2,0,2.4,0,3.58h-2.05c0-1.16,0-2.36,0-3.57Z" transform="translate(-271.59 -149.28)"/><text class="cls-2" transform="translate(20.79 21.63) scale(1.01 1)">SIGNATURE</text><path class="cls-1" d="M428.88,162.48a.6.6,0,0,1-.62-.15.62.62,0,0,1-.18-.44c-.88.18-2.2-.6-3.94-2.38-2.18-2.22-4.21-5.16-3.38-6l7.68,7.83a.6.6,0,0,1,.68.13.62.62,0,0,1,.15.63c1.63,1.47,3.51,3.15,5.09,4.6,3.47,3.18,3.4,3.59,3,4s-.82.5-3.94-3C432,166.09,430.34,164.16,428.88,162.48Z" transform="translate(-271.59 -149.28)"/><path class="cls-1" d="M438.34,154.86c-1.34,1.25-2.54,2.38-3.48,3.28l-.09-.09c.87-1,2-2.18,3.22-3.55l-.31-.31-3.47,3.28-.09-.09,3.22-3.54-.33-.33-3.48,3.28-.08-.09,3.22-3.55-.24-.24a10.88,10.88,0,0,0-2.52,1.92c-1.54,1.57-2.05,3.23-1.81,4.08-.15-.08-.28-.1-.34,0s0,.28.11.49c-2.17,2-4.75,4.31-6.89,6.3-4.38,4.06-4.32,4.54-3.85,5s1,.54,4.93-3.93c1.91-2.14,4.24-4.79,6.19-7,.2.14.39.19.47.11s0-.22,0-.38c.81.21,2.47-.26,4-1.83a10.63,10.63,0,0,0,1.88-2.56Z" transform="translate(-271.59 -149.28)"/><path class="cls-1" d="M281.29,162.48a.58.58,0,0,0,.61-.15.62.62,0,0,0,.18-.44c.89.18,2.2-.6,3.94-2.38,2.19-2.22,4.21-5.16,3.38-6l-7.67,7.83a.6.6,0,0,0-.68.13.62.62,0,0,0-.15.63c-1.63,1.47-3.51,3.15-5.09,4.6-3.47,3.18-3.4,3.59-3,4s.82.5,3.94-3C278.16,166.09,279.83,164.16,281.29,162.48Z" transform="translate(-271.59 -149.28)"/><path class="cls-1" d="M271.83,154.86c1.34,1.25,2.54,2.38,3.48,3.28l.08-.09-3.21-3.55.3-.31,3.48,3.28.09-.09-3.22-3.54.32-.33c1.34,1.25,2.54,2.38,3.48,3.28l.09-.09c-.87-1-2-2.18-3.22-3.55l.23-.24a10.67,10.67,0,0,1,2.52,1.92c1.55,1.57,2.05,3.23,1.81,4.08.15-.08.29-.1.35,0s0,.28-.11.49c2.16,2,4.74,4.31,6.89,6.3,4.37,4.06,4.32,4.54,3.85,5s-1,.54-4.94-3.93c-1.91-2.14-4.23-4.79-6.18-7-.21.14-.4.19-.48.11s0-.22,0-.38c-.81.21-2.47-.26-4-1.83a10.91,10.91,0,0,1-1.88-2.56Z" transform="translate(-271.59 -149.28)"/></svg>