<svg id="Restaurant_Free_Font:_Bitter_Montserrat" data-name="Restaurant | Free Font: Bitter + Montserrat" xmlns="http://www.w3.org/2000/svg" viewBox="0 0 300.53 113.309"><defs><style>.cls-1,.cls-2,.cls-3{fill:#fff;}.cls-2{font-size:67.453px;font-family:OleoScript-Regular, Oleo Script;}.cls-3{stroke:#fff;stroke-miterlimit:10;}</style></defs><title>only font logo1</title><rect class="cls-1" x="63.587" y="111.06" width="236.943" height="2.249"/><rect class="cls-1" x="63.587" y="73.44" width="236.943" height="2.249"/><path class="cls-1" d="M342.545,206.475a4.447,4.447,0,0,1-3.5,1.792c-3.177,0-5.344-4-5.344-10.717,0-6.469,2.026-10.629,5.529-10.629a4.174,4.174,0,0,1,2.992,1.41l.062,4.791h-1.2l-.542-4.884,1.068.438V190.3c-.756-1.182-1.4-1.637-2.08-1.637-1.672,0-3.1,2.775-3.1,8.892s1.363,8.971,3.07,8.971c.646,0,1.083-.355,1.752-1.083l-1.175,1.977v-2.338c0-2.492-.015-4.823-.046-7.338h2.552c-.03,2.462-.046,4.9-.046,7.449Zm-3.878-7.084v-1.652h4.706v1.652l-1.81.485h-1.011Z" transform="translate(-265.554 -102.997)"/><path class="cls-1" d="M344.728,189.145v-1.651h2.484v2.112h-.243Zm2.728,16.437,2.242.461v1.651h-4.97v-1.651l2.241-.461Zm-1.54-8.557c0-3.167,0-6.365-.046-9.531h2.641c-.047,3.131-.047,6.277-.047,9.616v.945c0,3.275,0,6.472.047,9.639H345.87c.046-3.1.046-6.3.046-9.531Zm1.319-.335h1.819c1.534,0,2-1.783,2-3.763,0-2.472-.673-3.664-1.933-3.664h-1.912v-1.769h2.539c2.43,0,3.775,1.909,3.775,5.1,0,2.347-.879,4.76-3.614,5.053l.012-.312c2.438.148,3.051,1.74,3.323,5.04l.411,4.749-1.27-1.583,2.315.5v1.651a3.213,3.213,0,0,1-1.691.441c-1.314,0-2.088-.758-2.24-3.149l-.287-3.569c-.153-2.069-.535-3.01-1.46-3.01h-1.79Z" transform="translate(-265.554 -102.997)"/><path class="cls-1" d="M356.043,189.145v-1.651h2.485v2.112h-.243Zm2.485,16.437v2.112h-2.485v-1.651l2.242-.461Zm-1.3-8.557c0-3.167,0-6.365-.046-9.531h2.686c-.046,3.1-.046,6.3-.046,9.531v1.013c0,3.292,0,6.489.046,9.656h-2.686c.046-3.1.046-6.3.046-9.531Zm5.062-9.531,1.118,1.736h-4.883v-1.736h5.4l.109,5.295H362.75Zm-.364,10.681h-3.4v-1.814h3.4Zm2.417,4.224-.108,5.295h-5.71v-1.715h5.192l-1.118,1.715.456-5.295Zm-2.889-5.509.231-2.948h.9v6.621h-.9l-.231-3.1Z" transform="translate(-265.554 -102.997)"/><path class="cls-1" d="M366,189.145v-1.651h2.485v2.112h-.243Zm2.485,16.437v2.112H366v-1.651l2.242-.461Zm-1.3-8.557c0-3.167,0-6.365-.046-9.531h2.686c-.046,3.1-.046,6.3-.046,9.531v1.013c0,3.292,0,6.489.046,9.656h-2.686c.046-3.1.046-6.3.046-9.531Zm5.062-9.531,1.118,1.736h-4.883v-1.736h5.4l.109,5.295h-1.288Zm-.364,10.681h-3.4v-1.814h3.4ZM374.3,202.4l-.108,5.295h-5.71v-1.715h5.192l-1.118,1.715.456-5.295Zm-2.889-5.509.232-2.948h.895v6.621h-.895l-.232-3.1Z" transform="translate(-265.554 -102.997)"/><path class="cls-1" d="M375.891,206.043l1.643-.461h.443l1.987.461v1.651h-4.073Zm.805-17.463.891.871-1.675-.284v-1.673H379.4l5.54,15.138v5.122H383.63Zm.507-1.086,1,1.673v18.527h-1Zm4.973,0h4.074v1.651l-1.566.461h-.432l-2.076-.461Zm1.767,0h1v20.26l-1-1.981Z" transform="translate(-265.554 -102.997)"/><path class="cls-1" d="M392.042,189.145v-1.651h2.485v2.112h-.243Zm2.952,16.437,2.241.461v1.651h-5.193v-1.651l2.242-.461Zm-1.764-8.557c0-3.167,0-6.365-.046-9.531h2.686c-.046,3.1-.046,6.3-.046,9.531v1.013c0,3.292,0,6.489.046,9.656h-2.686c.046-3.1.046-6.3.046-9.531Zm5.162-9.531,1.119,1.736h-4.984v-1.736h5.5l.108,5.295h-1.288Zm-.419,10.681h-3.446v-1.814h3.446Zm-.472-1.285.232-2.948h.895v6.929h-.895l-.232-3.1Z" transform="translate(-265.554 -102.997)"/><path class="cls-1" d="M411.429,197.594c0,7.088-2.35,10.673-4.9,10.673s-4.9-3.508-4.9-10.673c0-7.089,2.369-10.673,4.9-10.673S411.429,190.428,411.429,197.594Zm-4.9,8.891c1.554,0,2.164-3.791,2.164-8.891,0-5.078-.61-8.913-2.164-8.913s-2.168,3.835-2.168,8.913C404.361,202.694,404.976,206.485,406.529,206.485Z" transform="translate(-265.554 -102.997)"/><path class="cls-1" d="M423.3,197.594c0,7.088-2.35,10.673-4.9,10.673s-4.9-3.508-4.9-10.673c0-7.089,2.369-10.673,4.9-10.673S423.3,190.428,423.3,197.594Zm-4.9,8.891c1.554,0,2.164-3.791,2.164-8.891,0-5.078-.61-8.913-2.164-8.913s-2.168,3.835-2.168,8.913C416.232,202.694,416.847,206.485,418.4,206.485Z" transform="translate(-265.554 -102.997)"/><path class="cls-1" d="M424.878,189.145v-1.651h2.484v2.112h-.243Zm2.484,16.437v2.112h-2.484v-1.651l2.241-.461Zm-1.3-8.557c0-3.167,0-6.365-.046-9.531h2.685c-.046,3.1-.046,6.3-.046,9.531v1.013c0,3.292,0,6.489.046,9.656H426.02c.046-3.1.046-6.3.046-9.634Zm1.3,8.9H429.2c1.768,0,2.862-3.015,2.862-8.345,0-5.412-1.094-8.317-2.833-8.317h-1.865v-1.769h2.1c3.29,0,5.272,3.827,5.272,10.042,0,6.42-2.174,10.158-5.548,10.158h-1.829Z" transform="translate(-265.554 -102.997)"/><path class="cls-1" d="M442.563,201.446c0,2.489.922,4.134,2.113,4.134.806,0,1.437-.554,1.87-1.523l.431.858c-.516,1.568-1.467,3.246-3.352,3.246-2.075,0-3.162-2.491-3.162-5.405a7.086,7.086,0,0,1,2.931-6.218l.242.714A7.5,7.5,0,0,0,442.563,201.446Zm.169-4.618a12.962,12.962,0,0,1-.931-4.839c0-3.008,1.155-4.89,2.914-4.89,1.714,0,2.677,1.585,2.677,3.98a6,6,0,0,1-2.516,5.062l-.392-.662a11.044,11.044,0,0,0,1.229-4.827c0-1.392-.387-2.277-1.025-2.277-.621,0-1.042.985-1.042,2.335a9.037,9.037,0,0,0,.55,3.061c.325.9.7,1.729,2.057,4.684,1.42,3.088,2.091,4.413,3.422,7.257l-1.128-1.107,2.27.958-.129,2.157a3.4,3.4,0,0,1-1.514.441c-.9,0-1.561-.391-2.266-1.615a49.822,49.822,0,0,1-2.212-4.906C443.634,199.03,443.136,197.778,442.732,196.828Zm5.966-1.3h1.2a33.693,33.693,0,0,1-2.137,8.189l-.528-.77A29.18,29.18,0,0,0,448.7,195.524Zm.271.959-1.534-.5v-1.385h3.409v1.385l-1.544.5Z" transform="translate(-265.554 -102.997)"/><path class="cls-1" d="M456.585,189.145v-1.651h2.484v2.112h-.243Zm2.728,16.437,2.242.461v1.651h-4.97v-1.651l2.241-.461Zm-1.54-8.557c0-3.167,0-6.365-.046-9.531h2.641c-.047,3.131-.047,6.277-.047,9.616v.945c0,3.275,0,6.472.047,9.639h-2.641c.046-3.1.046-6.3.046-9.531Zm1.319-.335h1.819c1.533,0,2-1.783,2-3.763,0-2.472-.672-3.664-1.933-3.664h-1.911v-1.769h2.539c2.43,0,3.775,1.909,3.775,5.1,0,2.347-.878,4.76-3.614,5.053l.012-.312c2.438.148,3.051,1.74,3.323,5.04l.411,4.749-1.27-1.583,2.315.5v1.651a3.213,3.213,0,0,1-1.691.441c-1.314,0-2.088-.758-2.239-3.149l-.288-3.569c-.153-2.069-.535-3.01-1.46-3.01h-1.79Z" transform="translate(-265.554 -102.997)"/><path class="cls-1" d="M467.9,189.145v-1.651h2.485v2.112h-.243Zm2.485,16.437v2.112H467.9v-1.651l2.242-.461Zm-1.3-8.557c0-3.167,0-6.365-.047-9.531h2.686c-.046,3.1-.046,6.3-.046,9.531v1.013c0,3.292,0,6.489.046,9.656h-2.686c.047-3.1.047-6.3.047-9.531Zm5.06-9.531,1.12,1.736h-4.884v-1.736h5.4l.109,5.295h-1.289Zm-.363,10.681h-3.4v-1.814h3.4ZM476.2,202.4l-.108,5.295h-5.71v-1.715h5.192l-1.118,1.715.456-5.295Zm-2.89-5.509.233-2.948h.895v6.621h-.895l-.233-3.1Z" transform="translate(-265.554 -102.997)"/><path class="cls-1" d="M482.913,203.51a3.6,3.6,0,0,0-1.333-3.181l-.654-.594a8.253,8.253,0,0,1-2.867-6.881c0-3.691,1.5-5.933,3.837-5.933a3.727,3.727,0,0,1,2.918,1.563l-.126,4.308h-1.417l-.376-4.643,1.245.882v1.537c-.824-1.187-1.407-1.821-2.2-1.821-.882,0-1.592,1.11-1.592,2.795a3.877,3.877,0,0,0,1.4,3.292l.726.662c1.97,1.767,2.781,3.462,2.781,6.574,0,3.628-1.4,6.2-4.034,6.2a4.387,4.387,0,0,1-3.353-1.608l.093-4.571H479.4l.4,4.979-1.193-.75v-1.476c.98,1.052,1.617,1.6,2.611,1.6C482.318,206.441,482.913,205.177,482.913,203.51Z" transform="translate(-265.554 -102.997)"/><path class="cls-1" d="M487.1,189.23l1.118-1.736-.4,5.716h-1.289l.057-5.716h9.067l.045,5.716h-1.277l-.4-5.716,1.106,1.736Zm4.331,16.352,2.329.461v1.651h-5.29v-1.651l2.284-.461Zm-1.618-8.557c0-3.167,0-6.365-.047-9.531h2.686c-.047,3.1-.047,6.3-.047,9.531v1.116c0,3.189,0,6.386.047,9.553h-2.686c.047-3.1.047-6.3.047-9.531Z" transform="translate(-265.554 -102.997)"/><path class="cls-1" d="M495.716,206.043l1.589-.461h.275l1.465.461v1.651h-3.329Zm4.389-18.592h1.6l3.474,20.243h-2.64L499.9,191.185l.579-1.553-2.951,18.062h-.915Zm-1.661,12.584h4.169l.348,1.791h-4.775Zm2.6,6.074,1.745-.461h1.033l1.982.461v1.585h-4.76Z" transform="translate(-265.554 -102.997)"/><path class="cls-1" d="M506.36,189.145v-1.651H511.4v1.651l-2.3.461h-.443Zm5.939,16.326c1.387,0,2.215-1.844,2.215-6.482v-11.5h1.006v11.5c0,6.523-1.519,9.277-4.072,9.277-2.284,0-3.942-2.247-3.942-8.21v-3.343c0-3.033,0-6.142-.046-9.22h2.686c-.046,3.016-.046,6.125-.046,9.22v2.363C510.1,203.789,510.836,205.471,512.3,205.471Zm2.457-16.042-1.644-.284v-1.651H516.8v1.651l-1.588.284Z" transform="translate(-265.554 -102.997)"/><path class="cls-1" d="M518.226,189.145v-1.651h2.484v2.112h-.243Zm2.728,16.437,2.241.461v1.651h-4.969v-1.651l2.241-.461Zm-1.54-8.557c0-3.167,0-6.365-.047-9.531h2.642c-.047,3.131-.047,6.277-.047,9.616v.945c0,3.275,0,6.472.047,9.639h-2.642c.047-3.1.047-6.3.047-9.531Zm1.318-.335h1.82c1.533,0,2-1.783,2-3.763,0-2.472-.672-3.664-1.933-3.664H520.71v-1.769h2.539c2.43,0,3.774,1.909,3.774,5.1,0,2.347-.877,4.76-3.614,5.053l.013-.312c2.437.148,3.051,1.74,3.322,5.04l.411,4.749-1.269-1.583,2.314.5v1.651a3.207,3.207,0,0,1-1.69.441c-1.315,0-2.088-.758-2.239-3.149l-.289-3.569c-.152-2.069-.535-3.01-1.46-3.01h-1.79Z" transform="translate(-265.554 -102.997)"/><path class="cls-1" d="M529.322,206.043l1.589-.461h.276l1.464.461v1.651h-3.329Zm4.39-18.592h1.6l3.473,20.243h-2.639l-2.636-16.509.578-1.553-2.95,18.062h-.915Zm-1.661,12.584h4.169l.347,1.791h-4.775Zm2.595,6.074,1.746-.461h1.033l1.981.461v1.585h-4.76Z" transform="translate(-265.554 -102.997)"/><path class="cls-1" d="M540.774,206.043l1.644-.461h.442l1.988.461v1.651h-4.074Zm.806-17.463.891.871-1.675-.284v-1.673h3.486l5.539,15.138v5.122h-1.307Zm.507-1.086,1,1.673v18.527h-1Zm4.974,0h4.073v1.651l-1.567.461h-.431l-2.075-.461Zm1.765,0h1v20.26l-1-1.981Z" transform="translate(-265.554 -102.997)"/><path class="cls-1" d="M553.229,189.23l1.119-1.736-.406,5.716h-1.288l.057-5.716h9.066l.046,5.716h-1.277l-.4-5.716,1.106,1.736Zm4.332,16.352,2.329.461v1.651H554.6v-1.651l2.284-.461Zm-1.619-8.557c0-3.167,0-6.365-.046-9.531h2.686c-.047,3.1-.047,6.3-.047,9.531v1.116c0,3.189,0,6.386.047,9.553H555.9c.046-3.1.046-6.3.046-9.531Z" transform="translate(-265.554 -102.997)"/><text class="cls-2" transform="translate(31.791 57.672) scale(0.494 1)">SIGNATURE</text><path class="cls-3" d="M481.076,138.183c-.275.183-.59.053-.809-.405a2.787,2.787,0,0,1-.236-1.176c-1.154.491-2.877-1.6-5.158-6.332-2.858-5.939-5.508-13.774-4.424-16.024L480.5,135.11c.293-.276.651-.165.893.338a3.058,3.058,0,0,1,.192,1.7c2.138,3.91,4.6,8.4,6.665,12.255,4.544,8.491,4.453,9.581,3.9,10.718s-1.079,1.339-5.161-8.106C485.166,147.8,482.982,142.659,481.076,138.183Z" transform="translate(-265.554 -102.997)"/><path class="cls-3" d="M493.456,117.858c-1.748,3.344-3.321,6.361-4.552,8.741l-.114-.232c1.14-2.55,2.6-5.823,4.21-9.454l-.4-.832c-1.747,3.343-3.323,6.36-4.553,8.739l-.113-.233c1.141-2.545,2.6-5.819,4.212-9.451l-.423-.877c-1.748,3.343-3.323,6.358-4.554,8.74l-.113-.236c1.141-2.544,2.6-5.819,4.211-9.45l-.306-.635a21.607,21.607,0,0,0-3.3,5.105c-2.021,4.2-2.687,8.6-2.369,10.876-.2-.211-.371-.259-.455-.084a2.189,2.189,0,0,0,.142,1.313c-2.829,5.247-6.208,11.485-9.015,16.79-5.73,10.832-5.657,12.121-5.037,13.408s1.249,1.448,6.456-10.458c2.5-5.719,5.544-12.784,8.1-18.7.264.377.512.508.619.284a1.744,1.744,0,0,0-.05-1c1.066.565,3.239-.693,5.247-4.867a37.075,37.075,0,0,0,2.46-6.841Z" transform="translate(-265.554 -102.997)"/><path class="cls-3" d="M278.773,138.183c.275.183.589.053.809-.405a2.787,2.787,0,0,0,.235-1.176c1.155.491,2.877-1.6,5.158-6.332,2.858-5.939,5.508-13.774,4.424-16.024L279.352,135.11c-.293-.276-.65-.165-.893.338a3.067,3.067,0,0,0-.191,1.7c-2.138,3.91-4.6,8.4-6.665,12.255-4.544,8.491-4.452,9.581-3.905,10.718s1.079,1.339,5.162-8.106C274.682,147.8,276.867,142.659,278.773,138.183Z" transform="translate(-265.554 -102.997)"/><path class="cls-3" d="M266.393,117.858c1.748,3.344,3.321,6.361,4.552,8.741l.113-.232c-1.139-2.55-2.6-5.823-4.209-9.454l.4-.832c1.746,3.343,3.323,6.36,4.552,8.739l.115-.233c-1.142-2.545-2.6-5.819-4.213-9.451l.423-.877c1.747,3.343,3.322,6.358,4.554,8.74l.113-.236c-1.141-2.544-2.6-5.819-4.212-9.45l.306-.635a21.575,21.575,0,0,1,3.3,5.105c2.02,4.2,2.687,8.6,2.369,10.876.2-.211.371-.259.455-.084a2.2,2.2,0,0,1-.142,1.313c2.828,5.247,6.207,11.485,9.014,16.79,5.73,10.832,5.657,12.121,5.037,13.408s-1.249,1.448-6.455-10.458c-2.5-5.719-5.546-12.784-8.1-18.7-.264.377-.513.508-.62.284a1.746,1.746,0,0,1,.051-1c-1.067.565-3.239-.693-5.248-4.867a37.222,37.222,0,0,1-2.46-6.841Z" transform="translate(-265.554 -102.997)"/></svg>